# xmcd
#
# Track frame offsets: 
#        150
#        4740
#        22749
#        40185
#        57035
#        76916
#        82607
#        97884
#        118145
#
# Disc length: 1619 seconds
#
# Revision: 0
# Processed by: cddbd v1.5.1PL0 Copyright (c) Steve Scherf et al.
# Submitted via: ExactAudioCopy v0.95a5
#
DISCID=51065109
DTITLE=Robin Dai - 7：45 Buon Giorno
DYEAR=2004
DGENRE=Easy Listening
TTITLE0=愛上_想你_(OS)
TTITLE1=義大利的_天空
TTITLE2=迷失 我的不安
TTITLE3=燦爛_微_笑
TTITLE4=晨光_咖啡
TTITLE5=抉擇_(OS)
TTITLE6=啃蝕的心痛
TTITLE7=幸福_羽翼
TTITLE8=再孤單_(OS)
EXTD=
EXTT0=
EXTT1=
EXTT2=
EXTT3=
EXTT4=
EXTT5=
EXTT6=
EXTT7=
EXTT8=
PLAYORDER=
